<?xml version="1.0" encoding="UTF-8"?>
<svg id="Calque_1" xmlns="http://www.w3.org/2000/svg" version="1.1" viewBox="0 0 120 64.06">
  <!-- Generator: Adobe Illustrator 29.2.1, SVG Export Plug-In . SVG Version: 2.1.0 Build 116)  -->
  <defs>
    <style>
      .st0 {
        fill: #2c3e50;
      }

      .st1 {
        fill: #ff5733;
      }
    </style>
  </defs>
  <path class="st0" d="M53.74,23.32l-.06,7.17.06,6.09c.35.05.64.07.87.07.66,0,1.34-.12,2.03-.35.69-.24,1.31-.56,1.84-.96.34-.26.7-.61,1.06-1.05.37-.44.66-.87.88-1.28.13-.24.27-.36.41-.36.22,0,.33.09.33.28,0,.2-.17.54-.5,1.03-.33.48-.7.91-1.1,1.3-.86.83-1.88,1.41-3.04,1.73-.7.2-1.37.29-2.02.29-.94,0-1.89-.2-2.84-.61-1.52-.64-2.68-1.65-3.48-3.04-.66-1.15-.99-2.38-.99-3.67s.34-2.57,1.03-3.74c.73-1.25,1.77-2.2,3.11-2.86.98-.47,2.03-.71,3.16-.71,1.94,0,3.62.66,5.03,1.97.67.63,1.01,1.08,1.01,1.35,0,.07-.03.14-.1.2-.07.06-.14.09-.22.09-.13,0-.3-.13-.48-.39-.58-.8-1.34-1.44-2.29-1.91-.95-.47-1.95-.7-3.01-.7-.25,0-.48.02-.71.07Z"/>
  <path class="st0" d="M67.63,25.8v.29l-.02,1.58-.02,2.45-.03,3.72.04,2.09.02.91h-5.2l.05-3.72.03-3.29-.02-1.73-.03-1.92v-.38h5.18ZM65.02,22.26c1.78,0,2.67.47,2.67,1.4,0,.45-.23.8-.7,1.06-.47.25-1.13.38-1.98.38-1.69,0-2.54-.48-2.54-1.44s.85-1.38,2.55-1.4Z"/>
  <path class="st0" d="M89.67,31.64v3.13c0,.61.04.99.11,1.15.14.31.48.47,1,.47.78,0,1.55-.21,2.32-.64.76-.43,1.43-1.02,1.99-1.77.18-.25.31-.41.39-.48.08-.07.17-.1.26-.1.11,0,.21.04.28.13.07.08.11.19.11.32,0,.28-.23.66-.68,1.14-.59.61-1.33,1.11-2.21,1.5s-1.74.58-2.57.58c-1.44,0-2.7-.48-3.8-1.45-.64-.57-1.13-1.26-1.48-2.09-.3-.73-.45-1.46-.45-2.18s.13-1.4.4-2.11c.27-.7.64-1.31,1.11-1.82.55-.6,1.19-1.06,1.94-1.39.73-.32,1.5-.49,2.3-.49,1.25,0,2.38.37,3.39,1.1,1.58,1.15,2.36,2.81,2.35,4.98h-5.39s-1.38.03-1.38.03ZM89.23,24.67l.99-2.77h3.56l-2.18,2.77h-2.37ZM92.26,30.98v-2.95c-.01-.63-.03-1.01-.04-1.13s-.06-.24-.14-.35c-.19-.26-.57-.39-1.15-.39s-.96.15-1.11.45c-.09.18-.14.66-.14,1.42v2.95l1.23.04,1.35-.04Z"/>
  <path class="st0" d="M47.98,48.11h5.32c1.39,0,2.43.07,3.13.2,1.73.33,3.13,1.25,4.19,2.77.84,1.19,1.25,2.51,1.25,3.94s-.43,2.79-1.29,3.99c-1.04,1.45-2.39,2.35-4.06,2.7-.43.09-.82.14-1.15.16-.34.02-1.08.03-2.22.03h-5.14l.03-6.67-.06-7.13ZM54.16,48.75l-.06,8.13.06,4.38c.9,0,1.55-.04,1.95-.11.39-.06.85-.21,1.36-.43,1.21-.52,2.15-1.35,2.84-2.51.6-.99.9-2.06.9-3.21,0-1.25-.35-2.41-1.06-3.46-1.26-1.87-3.12-2.8-5.59-2.8h-.39Z"/>
  <path class="st0" d="M68.54,56.49v3.13c0,.61.04.99.11,1.15.14.31.48.47,1,.47.78,0,1.55-.21,2.32-.64.76-.43,1.43-1.02,1.99-1.77.18-.25.31-.41.39-.48.08-.07.17-.1.26-.1.11,0,.21.04.28.13.07.08.11.19.11.32,0,.28-.23.66-.68,1.14-.59.61-1.33,1.11-2.21,1.5s-1.74.58-2.57.58c-1.44,0-2.7-.48-3.8-1.45-.64-.57-1.13-1.26-1.48-2.09-.3-.73-.45-1.46-.45-2.18s.13-1.4.4-2.11c.27-.7.64-1.31,1.11-1.82.55-.6,1.19-1.06,1.94-1.39.73-.32,1.5-.49,2.3-.49,1.25,0,2.38.37,3.39,1.1,1.58,1.15,2.36,2.81,2.35,4.98h-5.39s-1.38.03-1.38.03ZM68.1,49.51l.99-2.77h3.56l-2.18,2.77h-2.37ZM71.13,55.82v-2.95c-.01-.63-.03-1.01-.04-1.13s-.06-.24-.14-.35c-.19-.26-.57-.39-1.15-.39s-.96.15-1.11.45c-.09.18-.14.66-.14,1.42v2.95l1.23.04,1.35-.04Z"/>
  <path class="st1" d="M83.41,29.8c0-1.11-.09-1.9-.26-2.39-.17-.49-.51-.9-1.01-1.23-.66-.44-1.47-.66-2.43-.66-.71,0-1.45.14-2.2.42-.75.28-1.53.7-2.31,1.26v-1.41h-5.18l.03,2.19.03,2.26-.03,2.62-.03,3.96h5.17v-.43s-.04-2.97-.04-2.97l.02-2.17.02-2.84v-.41c.45-.38.87-.66,1.25-.85.38-.19.74-.28,1.07-.28.36,0,.59.11.7.32.05.11.09.23.1.37.01.14.02.57.03,1.29l-.12,33.05h5.17l.03-32.1Z"/>
  <path class="st0" d="M91.76,50.87v.29l-.02,1.58-.02,2.45-.03,3.72.04,2.09.02.91h-5.2l.05-3.72.03-3.29-.02-1.73-.03-1.92v-.38h5.18ZM89.14,47.33c1.78,0,2.67.47,2.67,1.4,0,.45-.23.8-.7,1.06-.47.25-1.13.38-1.98.38-1.69,0-2.54-.48-2.54-1.44s.85-1.38,2.55-1.4Z"/>
  <path class="st0" d="M99.73,52.84v7.4c-.01.42.04.7.15.83.1.14.31.21.63.21.8,0,1.58-.24,2.35-.73.77-.49,1.39-1.14,1.88-1.97.15-.25.29-.37.43-.37.1,0,.19.05.28.14.08.09.13.19.13.29,0,.24-.2.58-.59,1.03-.39.44-.85.84-1.36,1.19-1.06.71-2.19,1.06-3.4,1.06-1.65,0-3.02-.51-4.09-1.54-1.23-1.15-1.84-2.56-1.84-4.24s.65-3.16,1.94-4.31c1.09-.97,2.42-1.46,4.01-1.46,1.27,0,2.38.3,3.33.9.4.26.73.53.99.82.26.29.38.54.38.74,0,.1-.04.19-.11.26-.07.07-.17.11-.27.11-.14,0-.32-.16-.54-.49-.31-.45-.8-.84-1.47-1.18-.67-.33-1.3-.5-1.89-.5-.4,0-.65.11-.77.33-.11.22-.17.71-.17,1.47Z"/>
  <path class="st0" d="M111.5,56.49v3.13c0,.61.04.99.11,1.15.14.31.48.47,1,.47.78,0,1.55-.21,2.32-.64.76-.43,1.43-1.02,1.99-1.77.18-.25.31-.41.39-.48.08-.07.17-.1.26-.1.11,0,.21.04.28.13.07.08.11.19.11.32,0,.28-.23.66-.68,1.14-.59.61-1.33,1.11-2.21,1.5s-1.74.58-2.57.58c-1.44,0-2.7-.48-3.8-1.45-.64-.57-1.13-1.26-1.48-2.09-.3-.73-.45-1.46-.45-2.18s.13-1.4.4-2.11c.27-.7.64-1.31,1.11-1.82.55-.6,1.19-1.06,1.94-1.39.73-.32,1.5-.49,2.3-.49,1.25,0,2.38.37,3.39,1.1,1.58,1.15,2.36,2.81,2.35,4.98h-5.39s-1.38.03-1.38.03ZM114.09,55.82v-2.95c-.01-.63-.03-1.01-.04-1.13s-.06-.24-.14-.35c-.19-.26-.57-.39-1.15-.39s-.96.15-1.11.45c-.09.18-.14.66-.14,1.42v2.95l1.23.04,1.35-.04Z"/>
  <g>
    <rect class="st1" x="1.73" y="28.98" width="42.47" height="32.92"/>
    <rect class="st0" x="1.73" y="28.95" width="42.47" height=".02"/>
    <path class="st0" d="M25.34,50.69c.98-.19,1.06-1.47,1.85-2.23,3.67-3.49,12.51-.91,10.04,4.27-1.96,4.1-10,3.54-11.25-1.04-8.09.09-16.19.29-24.25.7v9.51h42.47v-19.71l-24.24-.69c-1.13,3.4-8.19,4.69-10.96,3.44-1.11-.5-.86-1.39-.31-1.39h7.13c.64,0,.64-1.7,0-1.7h-7.13c-.64,0-.64-1.7,0-1.7h7.13c.64,0,.64-1.7,0-1.7h-7.13c-.22,0-.85-.7-.17-1.18,2.27-1.61,10.29-.07,11.45,3.23l24.22-.69v-10.85H1.73v21.05l23.61.68Z"/>
    <polygon class="st0" points="44.2 22.49 44.2 27.59 40.46 27.42 38.61 24.19 33.66 24.19 35.7 27.59 28.06 27.59 26.04 24.19 21.43 24.19 23.13 27.59 15.32 27.59 13.62 24.19 8.86 24.19 10.56 27.59 1.73 27.59 1.73 22.49 44.2 22.49"/>
    <polygon class="st0" points="1.73 21.47 1.73 20.43 39.62 2.15 42.5 6.53 38.65 8.15 34.85 6.21 31.29 8.22 34.34 10.6 27.98 13.6 24.15 11.28 19.39 13.66 23.13 16.03 15.65 18.96 12.63 17.22 8.52 19.27 11.58 21.47 1.73 21.47"/>
  </g>
</svg>