<?xml version="1.0" encoding="UTF-8"?>
<svg id="Calque_1" xmlns="http://www.w3.org/2000/svg" version="1.1" viewBox="0 0 32 32">
  <!-- Generator: Adobe Illustrator 29.2.1, SVG Export Plug-In . SVG Version: 2.1.0 Build 116)  -->
  <defs>
    <style>
      .st0 {
        fill: #2c3e50;
      }

      .st1 {
        fill: #ff5733;
      }
    </style>
  </defs>
  <rect class="st1" x="4.89" y="14.41" width="22.23" height="17.23"/>
  <rect class="st0" x="4.89" y="14.39" width="22.23" height="0"/>
  <path class="st0" d="M17.24,25.77c.51-.1.55-.77.97-1.17,1.92-1.83,6.55-.48,5.25,2.23-1.03,2.15-5.24,1.85-5.89-.55-4.23.05-8.48.15-12.69.37v4.98h22.23v-10.31l-12.69-.36c-.59,1.78-4.29,2.46-5.74,1.8-.58-.26-.45-.73-.16-.73h3.73c.33,0,.33-.89,0-.89h-3.73c-.33,0-.33-.89,0-.89h3.73c.33,0,.33-.89,0-.89h-3.73c-.11,0-.45-.37-.09-.62,1.19-.84,5.39-.04,5.99,1.69l12.68-.36v-5.68H4.89v11.02l12.36.36Z"/>
  <polygon class="st0" points="27.11 11.01 27.11 13.68 25.16 13.59 24.19 11.9 21.6 11.9 22.67 13.68 18.67 13.68 17.61 11.9 15.2 11.9 16.09 13.68 12 13.68 11.11 11.9 8.62 11.9 9.51 13.68 4.89 13.68 4.89 11.01 27.11 11.01"/>
  <polygon class="st0" points="4.89 10.48 4.89 9.93 24.72 .36 26.22 2.65 24.21 3.5 22.22 2.49 20.36 3.54 21.96 4.78 18.62 6.36 16.62 5.14 14.13 6.39 16.09 7.63 12.17 9.16 10.59 8.25 8.44 9.32 10.04 10.48 4.89 10.48"/>
</svg>