<?xml version="1.0" encoding="UTF-8"?>
<svg id="Calque_1" xmlns="http://www.w3.org/2000/svg" version="1.1" viewBox="0 0 281 150">
  <!-- Generator: Adobe Illustrator 29.2.1, SVG Export Plug-In . SVG Version: 2.1.0 Build 116)  -->
  <defs>
    <style>
      .st0 {
        fill: #2c3e50;
      }

      .st1 {
        fill: #ff5733;
      }
    </style>
  </defs>
  <path class="st0" d="M125.82,54.58l-.14,16.79.14,14.26c.82.11,1.5.17,2.03.17,1.54,0,3.13-.28,4.75-.83,1.62-.55,3.06-1.3,4.3-2.25.8-.62,1.64-1.44,2.5-2.46.86-1.03,1.55-2.03,2.07-3.01.3-.57.62-.85.97-.85.52,0,.78.22.78.66,0,.47-.39,1.28-1.17,2.4-.78,1.13-1.64,2.14-2.57,3.04-2.02,1.94-4.4,3.29-7.13,4.05-1.64.46-3.22.69-4.74.69-2.21,0-4.43-.47-6.65-1.42-3.57-1.5-6.28-3.88-8.15-7.13-1.55-2.7-2.32-5.57-2.32-8.6s.81-6.02,2.42-8.76c1.72-2.92,4.15-5.16,7.29-6.7,2.29-1.11,4.76-1.66,7.41-1.66,4.55,0,8.48,1.54,11.79,4.62,1.58,1.47,2.37,2.53,2.37,3.17,0,.17-.08.33-.24.47-.16.14-.33.21-.52.21-.32,0-.69-.31-1.14-.92-1.36-1.88-3.15-3.37-5.37-4.46-2.22-1.1-4.57-1.65-7.05-1.65-.58,0-1.14.06-1.66.17Z"/>
  <path class="st0" d="M158.39,60.41v.69l-.05,3.69-.05,5.73-.07,8.72.09,4.9.05,2.13h-12.17l.12-8.72.07-7.7-.05-4.05-.07-4.5.02-.9h12.1ZM152.25,52.12c4.17,0,6.25,1.09,6.25,3.27,0,1.06-.55,1.88-1.65,2.47-1.1.59-2.64.89-4.63.89-3.96,0-5.94-1.12-5.94-3.36s1.99-3.24,5.97-3.27Z"/>
  <path class="st0" d="M210.02,74.1v7.34c0,1.42.09,2.32.26,2.7.33.73,1.11,1.09,2.34,1.09,1.83,0,3.64-.5,5.44-1.5,1.79-1,3.34-2.39,4.65-4.16.43-.58.73-.96.92-1.11.19-.16.39-.24.62-.24.27,0,.49.1.66.3.17.2.26.45.26.75,0,.66-.53,1.56-1.59,2.68-1.39,1.44-3.11,2.61-5.17,3.51s-4.07,1.35-6.03,1.35c-3.36,0-6.33-1.13-8.91-3.39-1.5-1.33-2.65-2.96-3.46-4.9-.71-1.71-1.07-3.41-1.07-5.12s.32-3.29.95-4.94c.63-1.65,1.5-3.07,2.61-4.27,1.28-1.41,2.79-2.49,4.55-3.27,1.72-.76,3.52-1.14,5.4-1.14,2.92,0,5.57.86,7.93,2.58,3.69,2.68,5.53,6.58,5.49,11.68h-5.52l-7.11.02-3.24.05ZM208.98,57.76l2.32-6.49h8.34l-5.12,6.49h-5.54ZM216.08,72.54v-6.9c-.03-1.48-.06-2.37-.09-2.66s-.14-.56-.33-.82c-.44-.61-1.34-.92-2.7-.92s-2.26.35-2.61,1.06c-.22.43-.33,1.54-.33,3.33v6.9l2.89.09,3.17-.09Z"/>
  <path class="st0" d="M112.33,112.67h12.46c3.25,0,5.7.16,7.34.47,4.06.77,7.33,2.94,9.83,6.49,1.96,2.79,2.94,5.87,2.94,9.24s-1.01,6.54-3.03,9.35c-2.43,3.39-5.61,5.5-9.52,6.32-1.01.21-1.91.33-2.7.38-.79.05-2.53.07-5.21.07h-12.03l.07-15.63-.14-16.7ZM126.83,114.19l-.14,19.04.14,10.26c2.12-.02,3.64-.1,4.56-.25.92-.15,1.99-.49,3.19-1.01,2.83-1.22,5.04-3.17,6.66-5.87,1.41-2.32,2.11-4.83,2.11-7.53,0-2.94-.83-5.64-2.48-8.1-2.95-4.37-7.32-6.56-13.1-6.56l-.92.02Z"/>
  <path class="st0" d="M160.52,132.31v7.34c0,1.42.09,2.32.26,2.7.33.73,1.11,1.09,2.34,1.09,1.83,0,3.64-.5,5.44-1.5,1.79-1,3.34-2.39,4.65-4.16.43-.58.73-.96.92-1.11.19-.16.39-.24.62-.24.27,0,.49.1.66.3.17.2.26.45.26.75,0,.66-.53,1.56-1.59,2.68-1.39,1.44-3.11,2.61-5.17,3.51s-4.07,1.35-6.03,1.35c-3.36,0-6.33-1.13-8.91-3.39-1.5-1.33-2.65-2.96-3.46-4.9-.71-1.71-1.07-3.41-1.07-5.12s.32-3.29.95-4.94c.63-1.65,1.5-3.07,2.61-4.27,1.28-1.41,2.79-2.49,4.55-3.27,1.72-.76,3.52-1.14,5.4-1.14,2.92,0,5.57.86,7.93,2.58,3.69,2.68,5.53,6.58,5.49,11.68h-5.52l-7.11.02-3.24.05ZM159.48,115.96l2.32-6.49h8.34l-5.12,6.49h-5.54ZM166.58,130.74v-6.9c-.03-1.48-.06-2.37-.09-2.66s-.14-.56-.33-.82c-.44-.61-1.34-.92-2.7-.92s-2.26.35-2.61,1.06c-.22.43-.33,1.54-.33,3.33v6.9l2.89.09,3.17-.09Z"/>
  <path class="st1" d="M195.36,69.79c0-2.59-.2-4.46-.6-5.6-.4-1.14-1.19-2.1-2.36-2.88-1.55-1.03-3.44-1.54-5.68-1.54-1.67,0-3.39.33-5.16.98-1.77.66-3.58,1.64-5.42,2.95v-3.29h-12.13l.07,5.14.07,5.31-.07,6.13-.07,9.28h12.1l-.02-1.02-.07-6.96.05-5.09.05-6.66.02-.97c1.04-.88,2.01-1.55,2.91-1.99.9-.44,1.74-.66,2.51-.66.84,0,1.38.25,1.63.76.13.25.2.54.22.86.02.32.04,1.33.06,3.02l-.28,77.44h12.1l.06-75.21Z"/>
  <path class="st0" d="M214.91,119.14v.69l-.05,3.69-.05,5.73-.07,8.72.09,4.9.05,2.13h-12.17l.12-8.72.07-7.7-.05-4.05-.07-4.5.02-.9h12.1ZM208.78,110.85c4.17,0,6.25,1.09,6.25,3.27,0,1.06-.55,1.88-1.65,2.47-1.1.59-2.64.89-4.63.89-3.96,0-5.94-1.12-5.94-3.36s1.99-3.24,5.97-3.27Z"/>
  <path class="st0" d="M233.59,123.76v15.82l-.02,1.52c0,.98.12,1.63.37,1.95.24.32.74.49,1.48.49,1.86,0,3.69-.57,5.49-1.72,1.8-1.14,3.27-2.68,4.4-4.61.35-.58.69-.88,1.02-.88.24,0,.45.11.65.32.2.21.3.44.3.67,0,.57-.46,1.37-1.37,2.4-.92,1.03-1.98,1.96-3.2,2.78-2.48,1.66-5.13,2.49-7.96,2.49-3.87,0-7.07-1.2-9.59-3.6-2.87-2.7-4.31-6.01-4.31-9.92s1.52-7.4,4.55-10.09c2.54-2.27,5.68-3.41,9.4-3.41,2.97,0,5.57.7,7.79,2.11.95.6,1.72,1.24,2.32,1.93.6.69.9,1.27.9,1.74,0,.24-.09.44-.26.6-.17.17-.39.25-.64.25-.33,0-.75-.38-1.26-1.14-.73-1.06-1.87-1.98-3.43-2.76-1.56-.78-3.04-1.17-4.43-1.17-.93,0-1.53.26-1.8.78-.27.52-.4,1.67-.4,3.43Z"/>
  <path class="st0" d="M261.17,132.31v7.34c0,1.42.09,2.32.26,2.7.33.73,1.11,1.09,2.34,1.09,1.83,0,3.64-.5,5.44-1.5,1.79-1,3.34-2.39,4.65-4.16.43-.58.73-.96.92-1.11.19-.16.39-.24.62-.24.27,0,.49.1.66.3.17.2.26.45.26.75,0,.66-.53,1.56-1.59,2.68-1.39,1.44-3.11,2.61-5.17,3.51s-4.07,1.35-6.03,1.35c-3.36,0-6.33-1.13-8.91-3.39-1.5-1.33-2.65-2.96-3.46-4.9-.71-1.71-1.07-3.41-1.07-5.12s.32-3.29.95-4.94c.63-1.65,1.5-3.07,2.61-4.27,1.28-1.41,2.79-2.49,4.55-3.27,1.72-.76,3.52-1.14,5.4-1.14,2.92,0,5.57.86,7.93,2.58,3.69,2.68,5.53,6.58,5.49,11.68h-5.52l-7.11.02-3.24.05ZM267.23,130.74v-6.9c-.03-1.48-.06-2.37-.09-2.66s-.14-.56-.33-.82c-.44-.61-1.34-.92-2.7-.92s-2.26.35-2.61,1.06c-.22.43-.33,1.54-.33,3.33v6.9l2.89.09,3.17-.09Z"/>
  <g>
    <rect class="st1" x="3.98" y="67.87" width="99.5" height="77.13"/>
    <rect class="st0" x="3.97" y="67.78" width="99.5" height=".04"/>
    <path class="st0" d="M59.29,118.73c2.31-.44,2.48-3.45,4.34-5.22,8.59-8.18,29.32-2.14,23.52,10-4.59,9.6-23.44,8.3-26.36-2.45-18.95.22-37.94.67-56.82,1.64v22.29h99.5v-46.17l-56.78-1.63c-2.64,7.96-19.2,10.99-25.67,8.06-2.61-1.18-2.01-3.25-.73-3.25h16.72c1.5,0,1.5-3.98,0-3.98h-16.72c-1.5,0-1.5-3.98,0-3.98h16.72c1.5,0,1.5-3.98,0-3.98h-16.72c-.51,0-1.99-1.63-.39-2.78,5.32-3.78,24.12-.16,26.82,7.57l56.75-1.61v-25.43H3.97v49.31l55.33,1.6Z"/>
    <polygon class="st0" points="103.47 52.66 103.47 64.6 94.72 64.2 90.39 56.64 78.79 56.64 83.57 64.6 65.66 64.6 60.94 56.64 50.14 56.64 54.12 64.6 35.81 64.6 31.83 56.64 20.68 56.64 24.66 64.6 3.97 64.6 3.97 52.66 103.47 52.66"/>
    <polygon class="st0" points="3.97 50.27 3.97 47.82 92.74 5 99.49 15.25 90.47 19.05 81.58 14.51 73.22 19.23 80.38 24.78 65.47 31.83 56.5 26.39 45.36 31.96 54.12 37.52 36.58 44.37 29.5 40.3 19.89 45.1 27.05 50.27 3.97 50.27"/>
  </g>
</svg>